<mxfile host="app.diagrams.net" agent="Mozilla/5.0 (Windows NT 10.0; Win64; x64) AppleWebKit/537.36 (KHTML, like Gecko) Chrome/133.0.0.0 Safari/537.36" version="26.0.16">
  <diagram name="Page-1" id="UWBFtlV2EwZvAxMjJ2xx">
    <mxGraphModel dx="1050" dy="691" grid="1" gridSize="10" guides="1" tooltips="1" connect="1" arrows="1" fold="1" page="1" pageScale="1" pageWidth="850" pageHeight="1100" math="0" shadow="0">
      <root>
        <mxCell id="0" />
        <mxCell id="1" parent="0" />
        <mxCell id="_JJBRY80bZxFdqf96IZ3-6" style="edgeStyle=orthogonalEdgeStyle;rounded=0;orthogonalLoop=1;jettySize=auto;html=1;entryX=0.5;entryY=0;entryDx=0;entryDy=0;" edge="1" parent="1" source="_JJBRY80bZxFdqf96IZ3-1" target="_JJBRY80bZxFdqf96IZ3-2">
          <mxGeometry relative="1" as="geometry" />
        </mxCell>
        <mxCell id="_JJBRY80bZxFdqf96IZ3-1" value="Start" style="ellipse;whiteSpace=wrap;html=1;" vertex="1" parent="1">
          <mxGeometry x="365" y="40" width="120" height="80" as="geometry" />
        </mxCell>
        <mxCell id="_JJBRY80bZxFdqf96IZ3-19" value="" style="edgeStyle=orthogonalEdgeStyle;rounded=0;orthogonalLoop=1;jettySize=auto;html=1;" edge="1" parent="1" source="_JJBRY80bZxFdqf96IZ3-2" target="_JJBRY80bZxFdqf96IZ3-7">
          <mxGeometry relative="1" as="geometry" />
        </mxCell>
        <mxCell id="_JJBRY80bZxFdqf96IZ3-2" value="Sign-up/in using Canvas SSO" style="rounded=1;whiteSpace=wrap;html=1;" vertex="1" parent="1">
          <mxGeometry x="365" y="150" width="120" height="60" as="geometry" />
        </mxCell>
        <mxCell id="_JJBRY80bZxFdqf96IZ3-18" value="" style="edgeStyle=orthogonalEdgeStyle;rounded=0;orthogonalLoop=1;jettySize=auto;html=1;" edge="1" parent="1" source="_JJBRY80bZxFdqf96IZ3-7" target="_JJBRY80bZxFdqf96IZ3-10">
          <mxGeometry relative="1" as="geometry" />
        </mxCell>
        <mxCell id="_JJBRY80bZxFdqf96IZ3-7" value="Import weekly schedule (manual/pÃ­c)" style="rounded=1;whiteSpace=wrap;html=1;" vertex="1" parent="1">
          <mxGeometry x="365" y="240" width="120" height="60" as="geometry" />
        </mxCell>
        <mxCell id="_JJBRY80bZxFdqf96IZ3-29" style="edgeStyle=orthogonalEdgeStyle;rounded=0;orthogonalLoop=1;jettySize=auto;html=1;" edge="1" parent="1" source="_JJBRY80bZxFdqf96IZ3-10" target="_JJBRY80bZxFdqf96IZ3-21">
          <mxGeometry relative="1" as="geometry" />
        </mxCell>
        <mxCell id="_JJBRY80bZxFdqf96IZ3-31" value="" style="edgeStyle=orthogonalEdgeStyle;rounded=0;orthogonalLoop=1;jettySize=auto;html=1;" edge="1" parent="1" source="_JJBRY80bZxFdqf96IZ3-10" target="_JJBRY80bZxFdqf96IZ3-30">
          <mxGeometry relative="1" as="geometry" />
        </mxCell>
        <mxCell id="_JJBRY80bZxFdqf96IZ3-10" value="Home page" style="rounded=1;whiteSpace=wrap;html=1;" vertex="1" parent="1">
          <mxGeometry x="365" y="350" width="120" height="60" as="geometry" />
        </mxCell>
        <mxCell id="_JJBRY80bZxFdqf96IZ3-16" value="Second time or more" style="text;html=1;align=center;verticalAlign=middle;resizable=0;points=[];autosize=1;strokeColor=none;fillColor=none;" vertex="1" parent="1">
          <mxGeometry x="500" y="150" width="130" height="30" as="geometry" />
        </mxCell>
        <mxCell id="_JJBRY80bZxFdqf96IZ3-17" style="edgeStyle=orthogonalEdgeStyle;rounded=0;orthogonalLoop=1;jettySize=auto;html=1;exitX=1;exitY=0.5;exitDx=0;exitDy=0;entryX=1.017;entryY=0.62;entryDx=0;entryDy=0;entryPerimeter=0;" edge="1" parent="1" source="_JJBRY80bZxFdqf96IZ3-2" target="_JJBRY80bZxFdqf96IZ3-10">
          <mxGeometry relative="1" as="geometry">
            <Array as="points">
              <mxPoint x="550" y="180" />
              <mxPoint x="550" y="387" />
            </Array>
          </mxGeometry>
        </mxCell>
        <mxCell id="_JJBRY80bZxFdqf96IZ3-20" value="First time" style="text;html=1;align=center;verticalAlign=middle;resizable=0;points=[];autosize=1;strokeColor=none;fillColor=none;" vertex="1" parent="1">
          <mxGeometry x="355" y="210" width="70" height="30" as="geometry" />
        </mxCell>
        <mxCell id="_JJBRY80bZxFdqf96IZ3-23" value="" style="edgeStyle=orthogonalEdgeStyle;rounded=0;orthogonalLoop=1;jettySize=auto;html=1;" edge="1" parent="1" source="_JJBRY80bZxFdqf96IZ3-21" target="_JJBRY80bZxFdqf96IZ3-22">
          <mxGeometry relative="1" as="geometry" />
        </mxCell>
        <mxCell id="_JJBRY80bZxFdqf96IZ3-21" value="Main page" style="rounded=1;whiteSpace=wrap;html=1;" vertex="1" parent="1">
          <mxGeometry x="160" y="440" width="120" height="60" as="geometry" />
        </mxCell>
        <mxCell id="_JJBRY80bZxFdqf96IZ3-25" value="" style="edgeStyle=orthogonalEdgeStyle;rounded=0;orthogonalLoop=1;jettySize=auto;html=1;" edge="1" parent="1" source="_JJBRY80bZxFdqf96IZ3-22" target="_JJBRY80bZxFdqf96IZ3-24">
          <mxGeometry relative="1" as="geometry" />
        </mxCell>
        <mxCell id="_JJBRY80bZxFdqf96IZ3-22" value="Streak of coming to class" style="whiteSpace=wrap;html=1;rounded=1;" vertex="1" parent="1">
          <mxGeometry x="160" y="580" width="120" height="60" as="geometry" />
        </mxCell>
        <mxCell id="_JJBRY80bZxFdqf96IZ3-28" value="" style="edgeStyle=orthogonalEdgeStyle;rounded=0;orthogonalLoop=1;jettySize=auto;html=1;" edge="1" parent="1" source="_JJBRY80bZxFdqf96IZ3-24" target="_JJBRY80bZxFdqf96IZ3-27">
          <mxGeometry relative="1" as="geometry" />
        </mxCell>
        <mxCell id="_JJBRY80bZxFdqf96IZ3-24" value="absence report" style="whiteSpace=wrap;html=1;rounded=1;" vertex="1" parent="1">
          <mxGeometry x="160" y="720" width="120" height="60" as="geometry" />
        </mxCell>
        <mxCell id="_JJBRY80bZxFdqf96IZ3-33" value="" style="edgeStyle=orthogonalEdgeStyle;rounded=0;orthogonalLoop=1;jettySize=auto;html=1;" edge="1" parent="1" source="_JJBRY80bZxFdqf96IZ3-27" target="_JJBRY80bZxFdqf96IZ3-32">
          <mxGeometry relative="1" as="geometry" />
        </mxCell>
        <mxCell id="_JJBRY80bZxFdqf96IZ3-27" value="Calendar" style="whiteSpace=wrap;html=1;rounded=1;" vertex="1" parent="1">
          <mxGeometry x="160" y="860" width="120" height="60" as="geometry" />
        </mxCell>
        <mxCell id="_JJBRY80bZxFdqf96IZ3-30" value="" style="whiteSpace=wrap;html=1;rounded=1;" vertex="1" parent="1">
          <mxGeometry x="365" y="440" width="120" height="60" as="geometry" />
        </mxCell>
        <mxCell id="_JJBRY80bZxFdqf96IZ3-32" value="Quotes" style="whiteSpace=wrap;html=1;rounded=1;" vertex="1" parent="1">
          <mxGeometry x="160" y="1000" width="120" height="60" as="geometry" />
        </mxCell>
      </root>
    </mxGraphModel>
  </diagram>
</mxfile>
